<?xml version="1.0" standalone="no"?>
<!DOCTYPE svg PUBLIC "-//W3C//DTD SVG 20010904//EN"
 "http://www.w3.org/TR/2001/REC-SVG-20010904/DTD/svg10.dtd">
<svg version="1.0" xmlns="http://www.w3.org/2000/svg"
 width="512.000000pt" height="512.000000pt" viewBox="0 0 512.000000 512.000000"
 preserveAspectRatio="xMidYMid meet">

<g transform="translate(0.000000,512.000000) scale(0.100000,-0.100000)"
fill="#000000" stroke="none">
<path d="M2305 5004 c-339 -36 -601 -98 -860 -201 -1034 -414 -1604 -1325
-1404 -2248 126 -584 555 -1101 1171 -1411 222 -112 513 -210 753 -253 263
-48 319 -66 374 -122 50 -50 54 -153 15 -400 -15 -92 -24 -178 -20 -193 24
-96 134 -88 345 25 292 156 781 481 1138 755 336 259 650 549 832 769 429 519
566 1075 407 1659 -204 746 -916 1353 -1826 1556 -215 48 -343 62 -620 65
-146 2 -283 1 -305 -1z m-1194 -1489 c16 -9 39 -30 49 -48 19 -31 20 -53 20
-494 l0 -463 188 0 c103 0 203 -5 223 -10 111 -31 133 -181 36 -240 -30 -19
-52 -20 -331 -20 l-298 0 -38 38 c-32 31 -39 47 -45 92 -3 30 -5 282 -3 560 3
468 4 508 21 533 40 61 117 83 178 52z m900 0 c16 -9 39 -30 49 -48 19 -31 20
-54 20 -591 l0 -558 -39 -39 c-35 -35 -44 -39 -91 -39 -47 0 -56 4 -91 39
l-39 39 0 556 c0 615 -2 597 63 636 39 24 87 25 128 5z m454 -1 c25 -12 99
-105 302 -381 l268 -366 5 339 c5 306 7 342 23 366 42 61 142 75 194 26 54
-50 53 -35 53 -613 0 -481 -2 -541 -17 -572 -32 -68 -123 -94 -188 -55 -17 11
-139 168 -290 375 -143 196 -263 357 -267 357 -5 0 -8 -151 -8 -335 l0 -335
-33 -37 c-30 -32 -41 -37 -90 -41 -55 -4 -58 -3 -97 36 l-40 40 0 556 c0 615
-2 597 63 636 39 24 78 25 122 4z m1732 -4 c46 -27 65 -62 65 -116 0 -55 -22
-91 -73 -116 -29 -15 -63 -18 -231 -18 l-198 0 0 -120 0 -120 195 0 c217 0
247 -6 284 -59 27 -38 30 -110 6 -147 -9 -14 -30 -34 -48 -44 -29 -18 -51 -20
-234 -20 l-203 0 0 -120 0 -120 184 0 c207 0 232 -3 270 -33 63 -51 64 -148 2
-204 l-36 -33 -295 0 c-327 0 -338 2 -375 63 -19 31 -20 54 -20 582 0 534 1
551 20 583 36 58 54 61 370 62 265 0 287 -1 317 -20z"/>
</g>
</svg>
