<svg xmlns="http://www.w3.org/2000/svg" viewBox="0 0 418.57 358.75"><defs><style>.cls-1{fill:#a528ff;}</style></defs><g id="レイヤー_2" data-name="レイヤー 2"><g id="レイヤー_1-2" data-name="レイヤー 1"><path class="cls-1" d="M213.58,243.11v-2.17c-6.72,0-9.11-9.22-9.11-14.57H202.3c0,5.58-1.82,13.55-8.31,14.57-5,1-32,2.85-54.09,4.1,7.86-8.65,21.15-23.77,24.11-27.87,2.74-3.76,3.42-5.58,8.32-5.58v-2.16c-5.7,0-9.8-5.13-9.8-11.05h-2.28c0,5.81-3.75,11.05-10,11.05v2.16c5.12,0,6.37.91,6.37,3.76,0,2.62-15,22.52-20.13,29.81-10.47.57-19.47.91-23.91.91v2.05c4.55,0,6.49,4.32,6.49,10.25H121a3.17,3.17,0,0,1,2.5-3.42c15.26-1.94,58.53-8.66,70.72-11.84,5.69.68,8.2,9.11,8.2,14.91h2.05C204.47,251.65,207.43,243.11,213.58,243.11Z"/><path class="cls-1" d="M198.32,309V272.6c0-1.94,1.48-3.42,4.32-3.42v-2.05c-4.44,0-7.85-4.78-7.85-8.76h-2.17c0,4.44-1.82,8.31-5.58,8.31H137.17l-7.86-5.47v36.21c0,1.94-1.48,3.65-4.67,3.65V303c4.44,0,8,4.56,8,8.77h1.94c0-5.46,1.36-10.36,5-10.36h50.67V309Zm-61-9.68V268.73h52.95v30.63Z"/><path class="cls-1" d="M362.43,91.09c0,14.73-2.32,17-17,17,14.72,0,17,2.33,17,17,0-14.72,2.32-17,17.05-17C364.75,108.14,362.43,105.82,362.43,91.09Z"/><path class="cls-1" d="M414.23,106.5C402.07,84.55,366,78.12,315.33,88A156.48,156.48,0,0,0,213.61,44.75c-2.19-.09-4.37-.11-6.54-.11A143.52,143.52,0,0,1,300.9,91.12c-5.44,1.32-11,2.79-16.74,4.45A1.55,1.55,0,0,0,283,97.2a1.49,1.49,0,0,0,1.9,1.27q9.35-2.7,18.27-4.8A144.16,144.16,0,0,1,328.77,240,568.22,568.22,0,0,1,256,287.69c-31.09,17.21-62.53,31.14-92.29,41A144.17,144.17,0,0,1,57.86,233.59q9.26-9.9,20.33-20a1.5,1.5,0,1,0-2-2.22Q65.64,221,56.8,230.31a143.83,143.83,0,0,1-6.3-41.79c-.18,2.17-.35,4.34-.44,6.53a157.22,157.22,0,0,0,3.21,39.06A233.83,233.83,0,0,0,33.51,258.6a1.5,1.5,0,0,0,.69,2.25h0a1.51,1.51,0,0,0,1.78-.54,230.5,230.5,0,0,1,18.07-22.61,157.45,157.45,0,0,0,75.59,100.73q-12.36,2.91-24,4.69c-44.09,6.68-74.14,0-84.6-18.94a33.23,33.23,0,0,1-3.91-16.83,1.5,1.5,0,0,0-.94-1.43h0a1.52,1.52,0,0,0-2.07,1.39,36.23,36.23,0,0,0,4.3,18.33c8.37,15.13,28.12,23,56.8,23a206.62,206.62,0,0,0,30.87-2.53c8.85-1.34,18-3.19,27.5-5.51a157.12,157.12,0,0,0,230-126.41c7.84-7.49,15-15,21.47-22.52a219.72,219.72,0,0,0,14.67-19,1.48,1.48,0,0,0-.69-2.22h0a1.46,1.46,0,0,0-1.76.53,221.07,221.07,0,0,1-14.48,18.69c-5.73,6.66-12.06,13.35-18.91,20,0-.47.05-.94.07-1.41A156.61,156.61,0,0,0,318,90.55c18.32-3.4,34.91-4.67,49-3.69,22.45,1.56,37.89,8.85,44.67,21.09,7.44,13.43,4.4,32-8.41,53.73a1.49,1.49,0,0,0,.73,2.14h0a1.51,1.51,0,0,0,1.84-.63C419.12,140.44,422.18,120.86,414.23,106.5ZM188.39,331.9a146.06,146.06,0,0,1-18.76-2,564,564,0,0,0,87.8-39.56,577.06,577.06,0,0,0,69.06-44.76A144,144,0,0,1,188.39,331.9Z"/><path class="cls-1" d="M25.26,271.81c-1.25,2.25-2.4,4.48-3.45,6.67a1.51,1.51,0,0,0,.81,2h0a1.49,1.49,0,0,0,1.91-.76c.59-1.25,1.21-2.52,1.89-3.8.46-.89.95-1.79,1.46-2.7a1.5,1.5,0,0,0-.76-2.12A1.52,1.52,0,0,0,25.26,271.81Z"/><path class="cls-1" d="M19.56,287.91a1.52,1.52,0,0,0-2,.91c-.79,2.35-1.46,4.65-2,6.9a1.5,1.5,0,0,0,.92,1.73h0a1.51,1.51,0,0,0,2-1.07,67.27,67.27,0,0,1,1.88-6.58,1.5,1.5,0,0,0-.86-1.89Z"/><polygon class="cls-1" points="316.47 38 289.17 51.72 318.22 42.16 304.16 69.4 322.05 44.52 326.62 74.85 326.56 44.18 351.67 69.56 330.05 41.22 360.18 46.2 331.06 36.85 358.37 23.13 329.31 32.68 343.5 5.38 325.55 30.26 320.98 0 321.04 30.67 299.59 8.81 317.55 33.56 287.42 28.58 316.47 38"/><polygon class="cls-1" points="18.85 230.28 21.34 246.79 21.3 230.1 34.97 243.91 23.2 228.49 39.6 231.2 23.75 226.11 38.61 218.65 22.8 223.84 30.52 208.99 20.75 222.53 18.26 206.06 18.3 222.75 6.62 210.85 16.4 224.32 0 221.61 15.81 226.74 0.95 234.2 16.76 229 9.11 243.83 18.85 230.28"/><path class="cls-1" d="M43.13,184.39c1.88-.64,3.58-1.31,5.09-1.95,29-11.49,48.57-26.33,60.26-46.57,10-1.61,19.67-2.83,28.64-3.74,13.74,26.46,34.75,45.78,47.36,51.39,0-5,6.9-10.34,14.66-10.51v-2.93c-17.77-3.87-37.94-19.34-52.61-38.83,22.45-1.92,61.61-1.94,61.61-1.94,4.33,25.55,13.39,45,25.28,59.76a136.43,136.43,0,0,1-55.84,35l.95,2.3c27.17-6.89,46.38-18.12,60.3-31.1,14.47,15.28,32.32,24.74,50.43,30.15.55-3.38,6.9-8.24,12.58-8.24v-1.76a102.1,102.1,0,0,1-57.06-26.23c13.12-14.34,20.69-30.29,25.42-45,.68-2.16,3-3.65,6.08-3.65V138c-7.16,0-11.62-4.06-12.43-8.65H274c5.4,0,10.27,4.05,10.27,11.35h2.44c0-8.11,6.22-11.49,13.79-11.49v-2.43c-7.57,0-13.79-3.25-13.79-11.76h-2.44c0,7.57-4.87,11.62-10.27,11.62H243.56v-10c0-2,.55-4.46,6.09-4.46v-2.3c-5.54,0-9.87-6.22-9.87-10.82h-2.3c0,5.14-4.46,10.82-9.74,10.82v2.3c5.68,0,6.23,2,6.23,4.46v10s-52.37-.6-89,2.48c-8.73-12.11-15.29-25.63-17.85-38.82H158.8c6.9,0,12.76,5.35,12.76,14.83h3.27c0-10.52,8.11-14.83,17.24-14.83v-3.1c-9.13,0-17.24-4-17.24-15h-3.27c0,9.66-5.86,14.83-12.76,14.83H121.91c.17-3.62.35-7.59.35-11.55V47.17h75.67V44.06c-6,0-17.41-5.51-17.41-14.3h-3.1c0,8.79-7.07,14.3-12.24,14.3H44.68a1.56,1.56,0,0,0-1.55,1.56h0a1.56,1.56,0,0,0,1.55,1.55h65.16V75.61c0,3.79-.17,7.59-.34,11.38H52.78a1.55,1.55,0,0,0-1.55,1.55v.17a1.55,1.55,0,0,0,1.55,1.55h56.37c-1.6,17.24-6.32,32.37-14.47,45.74-19.58,3.7-39.38,8.84-56.08,16C13,163,8.09,172.43,9.6,180,11.6,190,29.6,189,43.13,184.39Zm218.15-55.08v4.59c0,14.07-8.12,32.32-22.58,49.22-12.85-13.79-22.72-31.91-28-53.81Zm-139.71-39h2.58A116.65,116.65,0,0,0,136,130c-8.25.89-17.1,2-26.19,3.43C116.42,121.09,120.23,106.87,121.57,90.26ZM44.6,153c14.71-6.31,31.57-10.93,48.39-14.33-9.83,15-24.16,27.7-43.55,38.66-1.48.7-3.39,1.58-5.84,2.67-9,4-26.55,7.63-28-2C14.53,170.91,22.92,162.29,44.6,153Z"/></g></g></svg>